<?xml version="1.0" encoding="utf-8"?>
<!-- Generator: Adobe Illustrator 23.0.3, SVG Export Plug-In . SVG Version: 6.00 Build 0)  -->
<svg version="1.1" id="图层_1" xmlns="http://www.w3.org/2000/svg" xmlns:xlink="http://www.w3.org/1999/xlink" x="0px" y="0px"
	 viewBox="0 0 668.4 158" style="enable-background:new 0 0 668.4 158;" xml:space="preserve">
<style type="text/css">
	.st0{fill:none;stroke:#000000;stroke-width:0.38;stroke-opacity:0.84;}
	.st1{opacity:0.61;}
	.st2{opacity:0.84;fill:#A0A0A0;stroke:#000000;stroke-width:0.38;enable-background:new    ;}
	.st3{opacity:0.84;fill:#E0E0E0;stroke:#000000;stroke-width:0.38;enable-background:new    ;}
	.st4{fill:none;stroke:#000000;stroke-width:0.19;}
	.st5{font-family:'OpenSans';}
	.st6{font-size:7.4023px;}
	.st7{font-size:7px;}
</style>
<image style="overflow:visible;" width="28" height="28" xlink:href="../../../../备份/PML_2022/train/000034.jpg"  transform="matrix(1.3532 0 0 1.3532 0 79.4036)">
</image>
<rect id="conv_0_14_" x="18.5" y="97" class="st0" width="5.5" height="5.5"/>
<g class="st1">
	<rect x="64.8" y="79.9" class="st2" width="36.9" height="36.9"/>
	<rect x="70.1" y="85.2" class="st3" width="36.9" height="36.9"/>
	<rect x="75.4" y="90.4" class="st2" width="36.9" height="36.9"/>
	<rect x="80.6" y="95.7" class="st3" width="36.9" height="36.9"/>
</g>
<g class="st1">
	<rect x="131.1" y="79.9" class="st2" width="36.9" height="36.9"/>
	<rect x="136.4" y="85.2" class="st3" width="36.9" height="36.9"/>
	<rect x="141.7" y="90.4" class="st2" width="36.9" height="36.9"/>
	<rect x="147" y="95.7" class="st3" width="36.9" height="36.9"/>
</g>
<g class="st1">
	<rect x="197.4" y="79.9" class="st2" width="36.9" height="36.9"/>
	<rect x="202.7" y="85.2" class="st3" width="36.9" height="36.9"/>
	<rect x="208" y="90.4" class="st2" width="36.9" height="36.9"/>
	<rect x="213.3" y="95.7" class="st3" width="36.9" height="36.9"/>
</g>
<g class="st1">
	<rect x="255.1" y="68.5" class="st2" width="22.2" height="22.2"/>
	<rect x="260.3" y="73.8" class="st3" width="22.2" height="22.2"/>
	<rect x="265.6" y="79.1" class="st2" width="22.2" height="22.2"/>
	<rect x="270.9" y="84.4" class="st3" width="22.2" height="22.2"/>
	<rect x="276.2" y="89.7" class="st2" width="22.2" height="22.2"/>
	<rect x="281.5" y="94.9" class="st3" width="22.2" height="22.2"/>
	<rect x="286.7" y="100.2" class="st2" width="22.2" height="22.2"/>
	<rect x="292" y="105.5" class="st3" width="22.2" height="22.2"/>
	<rect x="297.8" y="111.3" class="st2" width="22.2" height="22.2"/>
	<rect x="303.1" y="116.6" class="st3" width="22.2" height="22.2"/>
</g>
<g class="st1">
	<rect x="321.4" y="68.5" class="st2" width="22.2" height="22.2"/>
	<rect x="326.7" y="73.8" class="st3" width="22.2" height="22.2"/>
	<rect x="331.9" y="79.1" class="st2" width="22.2" height="22.2"/>
	<rect x="337.2" y="84.4" class="st3" width="22.2" height="22.2"/>
	<rect x="342.5" y="89.7" class="st2" width="22.2" height="22.2"/>
	<rect x="347.8" y="94.9" class="st3" width="22.2" height="22.2"/>
	<rect x="353.1" y="100.2" class="st2" width="22.2" height="22.2"/>
	<rect x="358.3" y="105.5" class="st3" width="22.2" height="22.2"/>
	<rect x="364.1" y="111.3" class="st2" width="22.2" height="22.2"/>
	<rect x="369.4" y="116.6" class="st3" width="22.2" height="22.2"/>
</g>
<g class="st1">
	<rect x="374.2" y="50" class="st2" width="13.3" height="13.3"/>
	<rect x="379.5" y="55.2" class="st3" width="13.3" height="13.3"/>
	<rect x="384.8" y="60.5" class="st2" width="13.3" height="13.3"/>
	<rect x="390.1" y="65.8" class="st3" width="13.3" height="13.3"/>
	<rect x="395.4" y="71.1" class="st2" width="13.3" height="13.3"/>
	<rect x="400.6" y="76.4" class="st3" width="13.3" height="13.3"/>
	<rect x="405.9" y="81.6" class="st2" width="13.3" height="13.3"/>
	<rect x="411.2" y="86.9" class="st3" width="13.3" height="13.3"/>
	<rect x="417" y="92.7" class="st2" width="12.5" height="12.5"/>
	<rect x="422.3" y="98" class="st3" width="13.3" height="13.3"/>
	<rect x="428.9" y="104.6" class="st2" width="12.5" height="12.5"/>
	<rect x="434.2" y="109.9" class="st3" width="13.3" height="13.3"/>
	<rect x="440.9" y="116.6" class="st2" width="12.5" height="12.5"/>
	<rect x="446.1" y="121.9" class="st3" width="13.3" height="13.3"/>
	<rect x="452.8" y="128.5" class="st2" width="12.5" height="12.5"/>
	<rect x="458.1" y="133.8" class="st3" width="13.3" height="13.3"/>
</g>
<g class="st1">
	<rect x="417.5" y="38.9" class="st2" width="10.6" height="10.6"/>
	<rect x="421.7" y="43.1" class="st3" width="10.6" height="10.6"/>
	<rect x="425.9" y="47.3" class="st2" width="10.6" height="10.6"/>
	<rect x="430.2" y="51.5" class="st3" width="10.6" height="10.6"/>
	<rect x="434.4" y="55.8" class="st2" width="10.6" height="10.6"/>
	<rect x="438.6" y="60" class="st3" width="10.6" height="10.6"/>
	<rect x="442.8" y="64.2" class="st2" width="10.6" height="10.6"/>
	<rect x="447.1" y="68.4" class="st3" width="10.6" height="10.6"/>
	<rect x="451.7" y="73.1" class="st2" width="10" height="10"/>
	<rect x="455.9" y="77.3" class="st3" width="10.6" height="10.6"/>
	<rect x="461.2" y="82.6" class="st2" width="10" height="10"/>
	<rect x="465.5" y="86.8" class="st3" width="10.6" height="10.6"/>
	<rect x="470.8" y="92.2" class="st2" width="10" height="10"/>
	<rect x="475" y="96.4" class="st3" width="10.6" height="10.6"/>
	<rect x="480.3" y="101.7" class="st2" width="10" height="10"/>
	<rect x="484.6" y="105.9" class="st3" width="10.6" height="10.6"/>
	<rect x="490.3" y="111.7" class="st2" width="10" height="10"/>
	<rect x="494.6" y="115.9" class="st3" width="10.6" height="10.6"/>
	<rect x="500.3" y="121.7" class="st2" width="10" height="10"/>
	<rect x="504.6" y="125.9" class="st3" width="10.6" height="10.6"/>
	<rect x="510.4" y="131.7" class="st2" width="10" height="10"/>
	<rect x="514.6" y="135.9" class="st3" width="10.6" height="10.6"/>
</g>
<g class="st1">
	<rect x="453.7" y="12.8" class="st2" width="10.6" height="10.6"/>
	<rect x="457.9" y="17" class="st3" width="10.6" height="10.6"/>
	<rect x="462.1" y="21.2" class="st2" width="10.6" height="10.6"/>
	<rect x="466.4" y="25.4" class="st3" width="10.6" height="10.6"/>
	<rect x="470.6" y="29.7" class="st2" width="10.6" height="10.6"/>
	<rect x="474.8" y="33.9" class="st3" width="10.6" height="10.6"/>
	<rect x="479" y="38.1" class="st2" width="10.6" height="10.6"/>
	<rect x="483.2" y="42.3" class="st3" width="10.6" height="10.6"/>
	<rect x="487.9" y="47" class="st2" width="10" height="10"/>
	<rect x="492.1" y="51.2" class="st3" width="10.6" height="10.6"/>
	<rect x="497.4" y="56.5" class="st2" width="10" height="10"/>
	<rect x="501.7" y="60.7" class="st3" width="10.6" height="10.6"/>
	<rect x="507" y="66.1" class="st2" width="10" height="10"/>
	<rect x="511.2" y="70.3" class="st3" width="10.6" height="10.6"/>
	<rect x="516.5" y="75.6" class="st2" width="10" height="10"/>
	<rect x="520.7" y="79.8" class="st3" width="10.6" height="10.6"/>
	<rect x="526.5" y="85.6" class="st2" width="10" height="10"/>
	<rect x="530.7" y="89.8" class="st3" width="10.6" height="10.6"/>
	<rect x="536.5" y="95.6" class="st2" width="10" height="10"/>
	<rect x="540.8" y="99.8" class="st3" width="10.6" height="10.6"/>
	<rect x="546.5" y="105.6" class="st2" width="10" height="10"/>
	<rect x="550.8" y="109.8" class="st3" width="10.6" height="10.6"/>
	<rect x="556.5" y="115.6" class="st2" width="10" height="10"/>
	<rect x="560.8" y="119.8" class="st3" width="10.6" height="10.6"/>
	<rect x="566.5" y="125.6" class="st2" width="10" height="10"/>
	<rect x="570.8" y="129.9" class="st3" width="10.6" height="10.6"/>
	<rect x="576.6" y="135.6" class="st2" width="10" height="10"/>
	<rect x="580.8" y="139.9" class="st3" width="10.6" height="10.6"/>
</g>
<rect id="conv_0" x="84.9" y="123.5" class="st0" width="5.5" height="5.5"/>
<rect id="conv_0_1_" x="172.4" y="103.3" class="st0" width="5.5" height="5.5"/>
<rect id="conv_0_4_" x="226.5" y="113.4" class="st0" width="5.5" height="5.5"/>
<rect id="conv_0_6_" x="306.9" y="130.7" class="st0" width="5.5" height="5.5"/>
<rect id="conv_0_7_" x="371.9" y="118.5" class="st0" width="5.5" height="5.5"/>
<rect id="conv_0_9_" x="463.8" y="139.5" class="st0" width="5.5" height="5.5"/>
<rect id="conv_0_12_" x="514.6" y="141" class="st0" width="5.5" height="5.5"/>
<polygon id="fc_0" class="st3" points="560,63.7 573.2,63.7 632.9,123.4 619.7,123.4 "/>
<polygon id="fc_1" class="st3" points="647.8,81.9 660.9,81.9 668.4,89.3 655.2,89.3 "/>
<line class="st4" x1="90.5" y1="123.5" x2="152.5" y2="129"/>
<line class="st4" x1="90.5" y1="129" x2="152.5" y2="129"/>
<line class="st4" x1="177.9" y1="103.3" x2="222.3" y2="100.7"/>
<line class="st4" x1="177.9" y1="108.8" x2="222.3" y2="100.7"/>
<line class="st4" x1="232" y1="113.4" x2="311.8" y2="121.2"/>
<line class="st4" x1="232" y1="118.9" x2="311.8" y2="121.2"/>
<line class="st4" x1="312.5" y1="130.7" x2="387.8" y2="136.2"/>
<line class="st4" x1="312.5" y1="136.2" x2="387.8" y2="136.2"/>
<line class="st4" x1="377.4" y1="118.5" x2="460.3" y2="136.2"/>
<line class="st4" x1="377.4" y1="124" x2="460.3" y2="136.2"/>
<line class="st4" x1="469.3" y1="139.5" x2="516.9" y2="137.3"/>
<line class="st4" x1="469.3" y1="145" x2="516.9" y2="137.3"/>
<line class="st4" x1="520.1" y1="141" x2="582.1" y2="148.8"/>
<line class="st4" x1="520.1" y1="146.5" x2="582.1" y2="148.8"/>
<line class="st4" x1="591.4" y1="150.5" x2="619.7" y2="123.4"/>
<line class="st4" x1="464.3" y1="12.8" x2="560" y2="63.7"/>
<line class="st4" x1="573.2" y1="63.7" x2="647.8" y2="81.9"/>
<line class="st4" x1="632.9" y1="123.4" x2="655.2" y2="89.3"/>
<text transform="matrix(1 0 0 1 66.058 71.1841)" class="st5 st6">8@28×28</text>
<text transform="matrix(1 0 0 1 0.1982 71.1841)" class="st5 st6">1@28×28</text>
<text transform="matrix(1 0 0 1 131.129 71.1841)" class="st5 st6">8@28×28</text>
<text transform="matrix(1 0 0 1 196.1999 71.1841)" class="st5 st6">8@28×28</text>
<text transform="matrix(1 0 0 1 247.1503 61.8122)" class="st5 st6">16@14×14</text>
<text transform="matrix(1 0 0 1 312.233 61.8122)" class="st5 st6">16@14×14</text>
<text transform="matrix(1 0 0 1 360.952 44.1837)" class="st5 st6">32@7×7</text>
<text transform="matrix(1 0 0 1 402.828 32.506)" class="st5 st6">64@3×3</text>
<text transform="matrix(1 0 0 1 439.7151 6.3241)" class="st5 st6">128@3×3</text>
<text transform="matrix(1 0 0 1 552.7729 56.5153)" class="st5 st6">1×1152</text>
<text transform="matrix(1 0 0 1 647.7549 77.2874)" class="st5 st6">1×8</text>
<line class="st4" x1="24" y1="97" x2="90.5" y2="102"/>
<line class="st4" x1="24" y1="102.5" x2="90.5" y2="102"/>
<text transform="matrix(1 0 0 1 34.5701 155.999)" class="st5 st7">Conv</text>
<text transform="matrix(1 0 0 1 117.5885 155.999)" class="st5 st7">Conv</text>
<text transform="matrix(1 0 0 1 186.7621 155.999)" class="st5 st7">Conv</text>
<text transform="matrix(1 0 0 1 243.7675 155.999)" class="st5 st7">Conv &amp; Avg-Pool</text>
<text transform="matrix(1 0 0 1 395.3561 155.999)" class="st5 st7">Conv &amp; Avg-Pool</text>
<text transform="matrix(1 0 0 1 466.3597 155.999)" class="st5 st7">Conv &amp; Avg-Pool</text>
<text transform="matrix(1 0 0 1 336.2522 155.999)" class="st5 st7">Conv</text>
<text transform="matrix(1 0 0 1 542.3988 155.999)" class="st5 st7">Conv</text>
<text transform="matrix(1 0 0 1 601.4567 155.999)" class="st5 st7">Dense</text>
</svg>
